<svg width="1693" height="382" viewBox="0 0 1693 382" fill="none" xmlns="http://www.w3.org/2000/svg">
<g clip-path="url(#clip0)">
<circle cx="261.919" cy="222.524" r="3.52358" transform="rotate(90 261.919 222.524)" fill="#70C217"/>
<circle cx="261.919" cy="274.203" r="3.52358" transform="rotate(90 261.919 274.203)" fill="#70C217"/>
<circle cx="261.919" cy="325.882" r="3.52358" transform="rotate(90 261.919 325.882)" fill="#70C217"/>
<circle cx="261.919" cy="377.561" r="3.52358" transform="rotate(90 261.919 377.561)" fill="#70C217"/>
<circle cx="210.24" cy="222.524" r="3.52358" transform="rotate(90 210.24 222.524)" fill="#70C217"/>
<circle cx="210.24" cy="274.203" r="3.52358" transform="rotate(90 210.24 274.203)" fill="#70C217"/>
<circle cx="210.24" cy="325.882" r="3.52358" transform="rotate(90 210.24 325.882)" fill="#70C217"/>
<circle cx="210.24" cy="377.561" r="3.52358" transform="rotate(90 210.24 377.561)" fill="#70C217"/>
<circle cx="158.56" cy="222.524" r="3.52358" transform="rotate(90 158.56 222.524)" fill="#70C217"/>
<circle cx="158.56" cy="274.203" r="3.52358" transform="rotate(90 158.56 274.203)" fill="#70C217"/>
<circle cx="158.56" cy="325.882" r="3.52358" transform="rotate(90 158.56 325.882)" fill="#70C217"/>
<circle cx="158.56" cy="377.561" r="3.52358" transform="rotate(90 158.56 377.561)" fill="#70C217"/>
<circle cx="106.881" cy="222.524" r="3.52358" transform="rotate(90 106.881 222.524)" fill="#70C217"/>
<circle cx="106.881" cy="274.203" r="3.52358" transform="rotate(90 106.881 274.203)" fill="#70C217"/>
<circle cx="106.881" cy="325.882" r="3.52358" transform="rotate(90 106.881 325.882)" fill="#70C217"/>
<circle cx="106.881" cy="377.561" r="3.52358" transform="rotate(90 106.881 377.561)" fill="#70C217"/>
<circle cx="55.202" cy="222.524" r="3.52358" transform="rotate(90 55.202 222.524)" fill="#70C217"/>
<circle cx="55.202" cy="274.203" r="3.52358" transform="rotate(90 55.202 274.203)" fill="#70C217"/>
<circle cx="55.202" cy="325.882" r="3.52358" transform="rotate(90 55.202 325.882)" fill="#70C217"/>
<circle cx="55.202" cy="377.561" r="3.52358" transform="rotate(90 55.202 377.561)" fill="#70C217"/>
<circle cx="3.52281" cy="222.524" r="3.52358" transform="rotate(90 3.52281 222.524)" fill="#70C217"/>
<circle cx="3.52281" cy="274.203" r="3.52358" transform="rotate(90 3.52281 274.203)" fill="#70C217"/>
<circle cx="3.52281" cy="325.882" r="3.52358" transform="rotate(90 3.52281 325.882)" fill="#70C217"/>
<circle cx="3.52281" cy="377.561" r="3.52358" transform="rotate(90 3.52281 377.561)" fill="#70C217"/>
<circle cx="54.8676" cy="71.8677" r="28.0887" transform="rotate(16.0891 54.8676 71.8677)" stroke="#FFBA49" stroke-width="5"/>
<circle cx="1552.5" cy="21.5" r="19" stroke="#FFBA49" stroke-width="5"/>
<circle cx="1689.44" cy="113.722" r="3.52358" transform="rotate(90 1689.44 113.722)" fill="#EF4358"/>
<circle cx="1689.44" cy="165.401" r="3.52358" transform="rotate(90 1689.44 165.401)" fill="#EF4358"/>
<circle cx="1689.44" cy="217.08" r="3.52358" transform="rotate(90 1689.44 217.08)" fill="#EF4358"/>
<circle cx="1689.44" cy="268.759" r="3.52358" transform="rotate(90 1689.44 268.759)" fill="#EF4358"/>
<circle cx="1689.44" cy="320.438" r="3.52358" transform="rotate(90 1689.44 320.438)" fill="#EF4358"/>
<circle cx="1637.76" cy="113.721" r="3.52358" transform="rotate(90 1637.76 113.721)" fill="#EF4358"/>
<circle cx="1637.76" cy="165.401" r="3.52358" transform="rotate(90 1637.76 165.401)" fill="#EF4358"/>
<circle cx="1637.76" cy="217.08" r="3.52358" transform="rotate(90 1637.76 217.08)" fill="#EF4358"/>
<circle cx="1637.76" cy="268.759" r="3.52358" transform="rotate(90 1637.76 268.759)" fill="#EF4358"/>
<circle cx="1637.76" cy="320.438" r="3.52358" transform="rotate(90 1637.76 320.438)" fill="#EF4358"/>
<circle cx="1586.08" cy="113.721" r="3.52358" transform="rotate(90 1586.08 113.721)" fill="#EF4358"/>
<circle cx="1586.08" cy="165.401" r="3.52358" transform="rotate(90 1586.08 165.401)" fill="#EF4358"/>
<circle cx="1586.08" cy="217.08" r="3.52358" transform="rotate(90 1586.08 217.08)" fill="#EF4358"/>
<circle cx="1586.08" cy="268.759" r="3.52358" transform="rotate(90 1586.08 268.759)" fill="#EF4358"/>
<circle cx="1586.08" cy="320.438" r="3.52358" transform="rotate(90 1586.08 320.438)" fill="#EF4358"/>
<circle cx="1534.4" cy="113.721" r="3.52358" transform="rotate(90 1534.4 113.721)" fill="#EF4358"/>
<circle cx="1534.4" cy="165.401" r="3.52358" transform="rotate(90 1534.4 165.401)" fill="#EF4358"/>
<circle cx="1534.4" cy="217.08" r="3.52358" transform="rotate(90 1534.4 217.08)" fill="#EF4358"/>
<circle cx="1534.4" cy="268.759" r="3.52358" transform="rotate(90 1534.4 268.759)" fill="#EF4358"/>
<circle cx="1534.4" cy="320.438" r="3.52358" transform="rotate(90 1534.4 320.438)" fill="#EF4358"/>
<circle cx="1482.72" cy="113.721" r="3.52358" transform="rotate(90 1482.72 113.721)" fill="#EF4358"/>
<circle cx="1482.72" cy="165.401" r="3.52358" transform="rotate(90 1482.72 165.401)" fill="#EF4358"/>
<circle cx="1482.72" cy="217.08" r="3.52358" transform="rotate(90 1482.72 217.08)" fill="#EF4358"/>
<circle cx="1482.72" cy="268.759" r="3.52358" transform="rotate(90 1482.72 268.759)" fill="#EF4358"/>
<circle cx="1482.72" cy="320.438" r="3.52358" transform="rotate(90 1482.72 320.438)" fill="#EF4358"/>
<circle cx="1431.04" cy="113.721" r="3.52358" transform="rotate(90 1431.04 113.721)" fill="#EF4358"/>
<circle cx="1431.04" cy="165.401" r="3.52358" transform="rotate(90 1431.04 165.401)" fill="#EF4358"/>
<circle cx="1431.04" cy="217.08" r="3.52358" transform="rotate(90 1431.04 217.08)" fill="#EF4358"/>
<circle cx="1431.04" cy="268.759" r="3.52358" transform="rotate(90 1431.04 268.759)" fill="#EF4358"/>
<circle cx="1431.04" cy="320.438" r="3.52358" transform="rotate(90 1431.04 320.438)" fill="#EF4358"/>
<circle cx="1379.36" cy="113.721" r="3.52358" transform="rotate(90 1379.36 113.721)" fill="#EF4358"/>
<circle cx="1379.36" cy="165.401" r="3.52358" transform="rotate(90 1379.36 165.401)" fill="#EF4358"/>
<circle cx="1379.36" cy="217.08" r="3.52358" transform="rotate(90 1379.36 217.08)" fill="#EF4358"/>
<circle cx="1379.36" cy="268.759" r="3.52358" transform="rotate(90 1379.36 268.759)" fill="#EF4358"/>
<circle cx="1379.36" cy="320.438" r="3.52358" transform="rotate(90 1379.36 320.438)" fill="#EF4358"/>
<circle cx="1327.68" cy="165.401" r="3.52358" transform="rotate(90 1327.68 165.401)" fill="#EF4358"/>
<circle cx="1327.68" cy="217.08" r="3.52358" transform="rotate(90 1327.68 217.08)" fill="#EF4358"/>
<circle cx="1327.68" cy="268.759" r="3.52358" transform="rotate(90 1327.68 268.759)" fill="#EF4358"/>
<circle cx="1327.68" cy="320.438" r="3.52358" transform="rotate(90 1327.68 320.438)" fill="#EF4358"/>
<circle cx="1276" cy="113.721" r="3.52358" transform="rotate(90 1276 113.721)" fill="#EF4358"/>
<circle cx="1276" cy="165.401" r="3.52358" transform="rotate(90 1276 165.401)" fill="#EF4358"/>
<circle cx="1276" cy="217.08" r="3.52358" transform="rotate(90 1276 217.08)" fill="#EF4358"/>
<circle cx="1276" cy="268.759" r="3.52358" transform="rotate(90 1276 268.759)" fill="#EF4358"/>
<circle cx="1276" cy="320.438" r="3.52358" transform="rotate(90 1276 320.438)" fill="#EF4358"/>
<circle cx="1224.33" cy="113.721" r="3.52358" transform="rotate(90 1224.33 113.721)" fill="#EF4358"/>
<circle cx="1224.33" cy="165.401" r="3.52358" transform="rotate(90 1224.33 165.401)" fill="#EF4358"/>
<circle cx="1224.33" cy="217.08" r="3.52358" transform="rotate(90 1224.33 217.08)" fill="#EF4358"/>
<circle cx="1224.33" cy="268.759" r="3.52358" transform="rotate(90 1224.33 268.759)" fill="#EF4358"/>
<circle cx="1224.33" cy="320.438" r="3.52358" transform="rotate(90 1224.33 320.438)" fill="#EF4358"/>
<circle cx="128" cy="179" r="14.5" stroke="#FFBA49" stroke-width="5"/>
</g>
<defs>
<clipPath id="clip0">
<rect width="1692.96" height="381.085" fill="white" transform="translate(-0.000976562)"/>
</clipPath>
</defs>
</svg>
